<svg width="47" height="32" viewBox="0 0 47 32" fill="none" xmlns="http://www.w3.org/2000/svg">
<path d="M0 2C0 0.89543 0.89543 0 2 0H45C46.1046 0 47 0.89543 47 2V16.4821C47 16.9912 46.8059 17.481 46.4573 17.8519L46.0385 18.2974C45.2839 19.1002 45.3207 20.362 46.1207 21.1195L46.3751 21.3604C46.774 21.7381 47 22.2633 47 22.8127V30C47 31.1046 46.1046 32 45 32H2C0.89543 32 0 31.1046 0 30V2Z" fill="#016FD0"/>
<path d="M9 25V18H16.8385L17.6795 19.0366L18.5483 18H47V24.5172C47 24.5172 46.2559 24.993 45.3954 25H29.6411L28.6929 23.8966V25H25.5858V23.1164C25.5858 23.1164 25.1614 23.3793 24.2438 23.3793H23.1862V25H18.4818L17.642 23.9411L16.7893 25H9Z" fill="white"/>
<path d="M0 11.8965L1.76691 8H4.82261L5.82535 10.1827V8H9.62386L10.2208 9.57758L10.7995 8H27.8509V8.7931C27.8509 8.7931 28.7472 8 30.2204 8L35.7529 8.01829L36.7384 10.1724V8H39.9172L40.792 9.23737V8H44V15H40.792L39.9536 13.7586V15H35.2833L34.8136 13.8965H33.558L33.096 15H29.9287C28.6612 15 27.8509 14.2231 27.8509 14.2231V15H23.0754L22.1276 13.8965V15H4.36993L3.90058 13.8965H2.64904L2.18301 15H0V11.8965Z" fill="white"/>
<path d="M2.53884 9L0 14H1.65291L2.12136 12.9988H4.84466L5.31068 14H7L4.46359 9H2.53884ZM3.47816 10.1637L4.30825 11.9132H2.64563L3.47816 10.1637V10.1637Z" fill="#016FD0"/>
<path d="M7 14V9L9.22835 9.00739L10.5244 12.2311L11.7895 9H14V14H12.6V10.3158L11.116 14H9.88817L8.4 10.3158V14H7Z" fill="#016FD0"/>
<path d="M15 14V9H19V10.1184H16.2387V10.9737H18.9355V12.0263H16.2387V12.9145H19V14H15Z" fill="#016FD0"/>
<path d="M20 9V14H21.3014V12.2237H21.8493L23.4097 14H25L23.2877 12.1579C23.9904 12.1009 24.7153 11.5216 24.7153 10.6221C24.7153 9.56995 23.8555 9 22.896 9H20V9ZM21.3014 10.1184H22.789C23.1458 10.1184 23.4054 10.3865 23.4054 10.6447C23.4054 10.9769 23.0691 11.1711 22.8082 11.1711H21.3014V10.1184V10.1184Z" fill="#016FD0"/>
<path d="M27 14H25V9H27V14Z" fill="#016FD0"/>
<path d="M30.1277 14H29.7713C28.0469 14 27 12.9498 27 11.5206C27 10.056 28.0352 9 30.2128 9H32V10.1842H30.1474C29.2635 10.1842 28.6383 10.7175 28.6383 11.5329C28.6383 12.5012 29.3531 12.9079 30.383 12.9079H30.8085L30.1277 14Z" fill="#016FD0"/>
<path d="M33.1761 9L31 14H32.4168L32.8183 12.9988H35.1526L35.552 14H37L34.8259 9H33.1761ZM33.9813 10.1637L34.6928 11.9132H33.2677L33.9813 10.1637Z" fill="#016FD0"/>
<path d="M37 14V9H38.9586L41.4595 12.1415V9H43V14H41.1047L38.5405 10.7763V14H37Z" fill="#016FD0"/>
<path d="M10 24V19H15V20.1184H11.5484V20.9737H14.9194V22.0263H11.5484V22.9145H15V24H10Z" fill="#016FD0"/>
<path d="M32 24V19H37V20.1184H33.5484V20.9737H36.9032V22.0263H33.5484V22.9145H37V24H32Z" fill="#016FD0"/>
<path d="M15.0515 24L17.2125 21.5308L15 19H16.7136L18.0313 20.5646L19.3535 19H21L18.8166 21.5L20.9816 24H19.2682L17.9888 22.4601L16.7405 24H15.0515Z" fill="#016FD0"/>
<path d="M21 19V24H22.4079V22.4211H23.852C25.0738 22.4211 26 21.8304 26 20.6817C26 19.7302 25.2736 19 24.0302 19H21V19ZM22.4079 20.1308H23.9287C24.3234 20.1308 24.6056 20.3512 24.6056 20.7064C24.6056 21.0401 24.3249 21.2821 23.9242 21.2821H22.4079V20.1308Z" fill="#016FD0"/>
<path d="M27 19V24H28.3014V22.2237H28.8493L30.4097 24H32L30.2877 22.1579C30.9904 22.1009 31.7153 21.5216 31.7153 20.6221C31.7153 19.5699 30.8555 19 29.896 19H27V19ZM28.3014 20.1184H29.789C30.1458 20.1184 30.4054 20.3865 30.4054 20.6447C30.4054 20.9769 30.0691 21.1711 29.8082 21.1711H28.3014V20.1184V20.1184Z" fill="#016FD0"/>
<path d="M37.1782 24V22.9145H39.9871C40.4027 22.9145 40.5826 22.7144 40.5826 22.4951C40.5826 22.2849 40.4033 22.0724 39.9871 22.0724H38.7178C37.6145 22.0724 37 21.4737 37 20.5748C37 19.7731 37.5627 19 39.2022 19H41.9354L41.3444 20.125H38.9806C38.5288 20.125 38.3897 20.3362 38.3897 20.5378C38.3897 20.7451 38.5615 20.9737 38.9067 20.9737H40.2364C41.4663 20.9737 42 21.595 42 22.4087C42 23.2835 41.4053 24 40.1694 24H37.1782Z" fill="#016FD0"/>
<path d="M42.1782 24V22.9145H44.9871C45.4027 22.9145 45.5826 22.7144 45.5826 22.4951C45.5826 22.2849 45.4032 22.0724 44.9871 22.0724H43.7178C42.6145 22.0724 42 21.4737 42 20.5748C42 19.7731 42.5627 19 44.2022 19H46.9354L46.3444 20.125H43.9806C43.5288 20.125 43.3897 20.3362 43.3897 20.5378C43.3897 20.7451 43.5615 20.9737 43.9067 20.9737H45.2364C46.4663 20.9737 47 21.595 47 22.4087C47 23.2835 46.4053 24 45.1694 24H42.1782Z" fill="#016FD0"/>
</svg>
