<svg width="47" height="32" viewBox="0 0 47 32" fill="none" xmlns="http://www.w3.org/2000/svg">
<path d="M47 29C47 31.3467 46.4619 32 44 32H3C0.538095 32 0 31.3467 0 29V3C0 0.653333 0.538095 0 3 0H44C46.4619 0 47 0.653333 47 3V29Z" fill="#F5F5F5"/>
<path d="M47 29C47 31.3467 46.3571 31.9998 44 31.9998H15.9286C15.9286 31.9998 41.2143 27.9465 47 15.9998V29ZM22.3572 15.9998C22.3572 17.8131 23.75 19.1998 25.5714 19.1998C27.3929 19.1998 28.7857 17.8131 28.7857 15.9998C28.7857 14.1865 27.3929 12.7998 25.5714 12.7998C23.75 12.7998 22.3572 14.1865 22.3572 15.9998Z" fill="#FF6D00"/>
<path d="M9.78572 12.8H10.9643V19.2H9.78572V12.8ZM16.2143 16C16.2143 17.8134 17.6072 19.2 19.4286 19.2C19.9643 19.2 20.3929 19.0934 20.9286 18.88V17.4934C20.5 17.92 20.0714 18.1334 19.4286 18.1334C18.25 18.1334 17.3929 17.28 17.3929 16C17.3929 14.8267 18.25 13.8667 19.4286 13.8667C19.9643 13.8667 20.3929 14.08 20.9286 14.5067V13.12C20.3929 12.9067 19.9643 12.6934 19.4286 12.6934C17.6072 12.8 16.2143 14.2934 16.2143 16ZM30.5714 16.96L28.8572 12.8H27.5714L30.25 19.2H30.8929L33.5714 12.8H32.2857L30.5714 16.96ZM34.1072 19.2H37.5357V18.1334H35.2857V16.4267H37.4286V15.36H35.2857V13.8667H37.5357V12.8H34.1072V19.2ZM42.25 14.72C42.25 13.5467 41.5 12.8 40.1072 12.8H38.2857V19.2H39.4643V16.64H39.5714L41.2857 19.2H42.7857L40.8572 16.5334C41.7143 16.32 42.25 15.68 42.25 14.72ZM39.7857 15.7867H39.4643V13.8667H39.7857C40.5357 13.8667 40.9643 14.1867 40.9643 14.8267C40.9643 15.36 40.6429 15.7867 39.7857 15.7867ZM6.03572 12.8H4.21429V19.2H5.92858C8.60715 19.2 9.25001 16.96 9.25001 16C9.35715 14.08 7.96429 12.8 6.03572 12.8ZM5.71429 18.1334H5.39287V13.8667H5.82144C7.42858 13.8667 8.07144 14.9334 8.07144 16C8.07144 16.4267 7.96429 18.1334 5.71429 18.1334ZM14.1786 15.2534C13.4286 14.9334 13.2143 14.8267 13.2143 14.5067C13.2143 14.08 13.6429 13.8667 14.0714 13.8667C14.3929 13.8667 14.7143 13.9734 15.0357 14.4L15.6786 13.5467C15.1429 13.0134 14.6072 12.8 13.8572 12.8C12.7857 12.8 11.9286 13.5467 11.9286 14.6134C11.9286 15.4667 12.3572 15.8934 13.4286 16.32C14.0714 16.5334 14.6072 16.7467 14.6072 17.28C14.6072 17.8134 14.1786 18.1334 13.6429 18.1334C13.1072 18.1334 12.5714 17.8134 12.3572 17.28L11.6072 18.0267C12.1429 18.88 12.7857 19.2 13.75 19.2C15.0357 19.2 15.8929 18.3467 15.8929 17.1734C15.8929 16.2134 15.4643 15.7867 14.1786 15.2534Z" fill="black"/>
</svg>
