<svg width="47" height="32" viewBox="0 0 47 32" fill="none" xmlns="http://www.w3.org/2000/svg">
<rect width="47" height="32" rx="2" fill="white"/>
<path d="M15.315 29.8456V27.9923C15.3264 27.8368 15.3026 27.6808 15.2452 27.5347C15.1877 27.3887 15.098 27.2558 14.9818 27.145C14.8657 27.0342 14.7259 26.9481 14.5717 26.8923C14.4176 26.8366 14.2526 26.8125 14.0877 26.8216C13.8714 26.8082 13.6553 26.8499 13.4619 26.9423C13.2684 27.0346 13.1048 27.1743 12.9881 27.3467C12.8817 27.1795 12.7295 27.0424 12.5475 26.95C12.3655 26.8576 12.1605 26.8132 11.954 26.8216C11.774 26.813 11.5947 26.849 11.434 26.9259C11.2733 27.0029 11.1366 27.1181 11.0376 27.2602V26.8958H10.3569V29.8456H11.0442V28.2116C11.029 28.1105 11.0377 28.0075 11.0699 27.91C11.102 27.8125 11.1567 27.723 11.23 27.6479C11.3033 27.5728 11.3933 27.5141 11.4936 27.4759C11.5939 27.4377 11.702 27.421 11.81 27.427C12.2616 27.427 12.4907 27.705 12.4907 28.2054V29.8456H13.1779V28.2116C13.1639 28.1107 13.1735 28.0082 13.2061 27.9112C13.2387 27.8142 13.2934 27.7251 13.3665 27.6503C13.4395 27.5755 13.5291 27.5167 13.6288 27.4781C13.7286 27.4395 13.8361 27.4221 13.9437 27.427C14.4084 27.427 14.631 27.705 14.631 28.2054V29.8456H15.315ZM19.144 28.3722V26.8988H18.4567V27.2571C18.3413 27.1166 18.192 27.004 18.0212 26.9288C17.8505 26.8536 17.6632 26.8179 17.4749 26.8247C17.0409 26.8247 16.6247 26.9874 16.3179 27.2771C16.011 27.5667 15.8386 27.9595 15.8386 28.3691C15.8386 28.7787 16.011 29.1715 16.3179 29.4612C16.6247 29.7508 17.0409 29.9135 17.4749 29.9135C17.6632 29.9203 17.8505 29.8846 18.0212 29.8094C18.192 29.7342 18.3413 29.6217 18.4567 29.4811V29.8394H19.1374L19.144 28.3722ZM16.6142 28.3722C16.6251 28.1984 16.6895 28.0314 16.7997 27.8917C16.9098 27.752 17.0609 27.6458 17.2342 27.5861C17.4075 27.5265 17.5955 27.5159 17.7751 27.5558C17.9546 27.5957 18.1179 27.6843 18.2448 27.8107C18.3717 27.9371 18.4567 28.0957 18.4893 28.2671C18.5219 28.4385 18.5006 28.6151 18.4282 28.7752C18.3557 28.9354 18.2353 29.072 18.0816 29.1683C17.9279 29.2647 17.7477 29.3165 17.5633 29.3174C17.433 29.3203 17.3035 29.2974 17.1832 29.2504C17.0628 29.2033 16.9541 29.1331 16.8642 29.0441C16.7742 28.9551 16.7049 28.8494 16.6608 28.7337C16.6166 28.618 16.5985 28.4949 16.6077 28.3722H16.6142ZM33.6875 26.8278C33.9116 26.8272 34.1338 26.8671 34.3421 26.9452C34.5408 27.0203 34.7221 27.1316 34.8755 27.2726C35.0269 27.4123 35.1471 27.5793 35.2289 27.7637C35.3999 28.1597 35.3999 28.6032 35.2289 28.9992C35.1472 29.1836 35.027 29.3506 34.8755 29.4903C34.7221 29.6314 34.5408 29.7426 34.3421 29.8178C33.9105 29.976 33.4318 29.976 33.0003 29.8178C32.8024 29.7427 32.6222 29.6314 32.4701 29.4903C32.3201 29.3501 32.2011 29.1832 32.1199 28.9992C31.9493 28.6031 31.9493 28.1598 32.1199 27.7637C32.2011 27.5798 32.3201 27.4128 32.4701 27.2726C32.6222 27.1315 32.8024 27.0202 33.0003 26.9452C33.216 26.8608 33.4474 26.8177 33.681 26.8185L33.6875 26.8278ZM33.6875 27.4456C33.5542 27.4438 33.4219 27.4669 33.2981 27.5135C33.1814 27.5576 33.0756 27.6239 32.9872 27.7081C32.8969 27.7968 32.8268 27.9019 32.781 28.017C32.681 28.2636 32.681 28.5364 32.781 28.783C32.8267 28.8982 32.8969 29.0033 32.9872 29.0919C33.0756 29.1762 33.1814 29.2424 33.2981 29.2865C33.5474 29.3786 33.8244 29.3786 34.0737 29.2865C34.1959 29.2438 34.3074 29.1776 34.401 29.0919C34.4914 29.0034 34.5616 28.8982 34.6071 28.783C34.7071 28.5364 34.7071 28.2636 34.6071 28.017C34.5616 27.9018 34.4914 27.7966 34.401 27.7081C34.3074 27.6224 34.1959 27.5562 34.0737 27.5135C33.9502 27.4602 33.8167 27.4308 33.681 27.427L33.6875 27.4456ZM22.842 28.3722C22.842 27.4456 22.2333 26.8278 21.3595 26.8278C20.9255 26.8335 20.5117 27.0017 20.2092 27.2954C19.9066 27.5891 19.74 27.9842 19.7461 28.3938C19.7522 28.8034 19.9304 29.194 20.2416 29.4795C20.5527 29.7651 20.9714 29.9223 21.4053 29.9166C21.8712 29.9316 22.3267 29.7843 22.6849 29.5027L22.3577 29.027C22.0992 29.2226 21.7791 29.3313 21.4479 29.3359C21.2229 29.3542 20.9992 29.2889 20.8244 29.1539C20.6496 29.0189 20.5375 28.8249 20.5119 28.6131H22.8322C22.842 28.5359 22.842 28.4587 22.842 28.3722ZM20.5152 28.1127C20.5278 27.9167 20.6204 27.7328 20.7736 27.5998C20.9267 27.4667 21.1285 27.3949 21.3366 27.3992C21.4385 27.3972 21.5398 27.4141 21.6347 27.449C21.7296 27.4839 21.8163 27.5361 21.8899 27.6027C21.9634 27.6692 22.0224 27.7488 22.0633 27.8368C22.1043 27.9249 22.1265 28.0197 22.1286 28.1158L20.5152 28.1127ZM25.7056 27.6494C25.4067 27.487 25.0686 27.3998 24.7238 27.3961C24.3507 27.3961 24.1282 27.5259 24.1282 27.7421C24.1282 27.9583 24.3638 27.9954 24.6583 28.0324L24.9856 28.0757C25.6663 28.1683 26.0787 28.4401 26.0787 28.9591C26.0787 29.478 25.555 29.9228 24.6551 29.9228C24.1727 29.9349 23.699 29.8006 23.3035 29.5398L23.6307 29.0394C23.9311 29.2497 24.2976 29.3585 24.6714 29.3483C25.1361 29.3483 25.3849 29.2185 25.3849 28.99C25.3849 28.8232 25.2081 28.7305 24.8351 28.6811L24.5078 28.6378C23.8074 28.5452 23.4278 28.2486 23.4278 27.7668C23.4278 27.1799 23.9384 26.8216 24.7369 26.8216C25.1838 26.8075 25.6256 26.9147 26.0099 27.1305L25.7056 27.6494ZM28.9782 27.4826H27.8688V28.8139C27.8688 29.1228 27.98 29.3081 28.3204 29.3081C28.5328 29.3015 28.74 29.2441 28.9226 29.1413L29.1189 29.6911C28.8638 29.8414 28.5688 29.9206 28.268 29.9197C27.463 29.9197 27.1815 29.512 27.1815 28.8263V27.4826H26.5466V26.8958H27.1815V26H27.8688V26.8958H28.9782V27.4826ZM31.3312 26.8216C31.4963 26.8222 31.6601 26.8494 31.8156 26.9019L31.6061 27.5197C31.4709 27.4688 31.3263 27.4436 31.1807 27.4456C30.7356 27.4456 30.5262 27.7174 30.5262 28.2054V29.8579H29.8454V26.9081H30.5196V27.2664C30.6031 27.131 30.7239 27.0193 30.869 26.9432C31.0141 26.8671 31.1784 26.8294 31.3443 26.834L31.3312 26.8216ZM36.0373 29.4162C36.0798 29.4157 36.1221 29.4231 36.1616 29.4378C36.1992 29.4523 36.2336 29.4733 36.2631 29.4996C36.2918 29.5262 36.3151 29.5577 36.3318 29.5923C36.3484 29.6283 36.3569 29.6672 36.3569 29.7066C36.3569 29.7459 36.3484 29.7848 36.3318 29.8208C36.3151 29.8555 36.2918 29.8869 36.2631 29.9135C36.2336 29.9399 36.1992 29.9608 36.1616 29.9753C36.1225 29.9916 36.0801 30 36.0373 30C35.9752 29.9996 35.9146 29.9825 35.8625 29.9508C35.8103 29.919 35.7688 29.874 35.7427 29.8208C35.7264 29.7847 35.7179 29.7458 35.7179 29.7066C35.7179 29.6673 35.7264 29.6284 35.7427 29.5923C35.7594 29.5577 35.7827 29.5262 35.8115 29.4996C35.8409 29.4733 35.8753 29.4523 35.9129 29.4378C35.9474 29.4249 35.9839 29.4176 36.0209 29.4162H36.0373ZM36.0373 29.9382C36.0699 29.9384 36.1023 29.9321 36.1322 29.9197C36.1603 29.9078 36.1859 29.8911 36.2074 29.8703C36.2352 29.8439 36.2557 29.8115 36.2672 29.7759C36.2787 29.7404 36.2809 29.7027 36.2734 29.6662C36.266 29.6297 36.2493 29.5954 36.2247 29.5664C36.2 29.5374 36.1683 29.5144 36.1322 29.4996C36.1022 29.4873 36.0699 29.481 36.0373 29.4811C36.0046 29.4812 35.9724 29.4875 35.9424 29.4996C35.913 29.511 35.8863 29.5278 35.8638 29.549C35.8229 29.5912 35.8002 29.6463 35.8002 29.7035C35.8002 29.7606 35.8229 29.8158 35.8638 29.8579C35.8865 29.8796 35.9135 29.8967 35.9433 29.9084C35.9731 29.9201 36.005 29.926 36.0373 29.9259V29.9382ZM36.0569 29.5707C36.0875 29.5693 36.1176 29.578 36.142 29.5954C36.152 29.6032 36.1599 29.6132 36.165 29.6244C36.1702 29.6357 36.1724 29.648 36.1714 29.6602C36.1719 29.6705 36.1701 29.6807 36.1662 29.6903C36.1622 29.6999 36.1562 29.7086 36.1485 29.7158C36.1296 29.7321 36.1054 29.7419 36.0798 29.7436L36.1747 29.8456H36.0995L36.0111 29.7436H35.9816V29.8456H35.9195V29.5614L36.0569 29.5707ZM35.9849 29.6232V29.6973H36.0569C36.0697 29.7009 36.0834 29.7009 36.0962 29.6973C36.0985 29.693 36.0997 29.6882 36.0997 29.6834C36.0997 29.6786 36.0985 29.6738 36.0962 29.6695C36.0985 29.6652 36.0997 29.6604 36.0997 29.6556C36.0997 29.6508 36.0985 29.646 36.0962 29.6417C36.0834 29.6381 36.0697 29.6381 36.0569 29.6417L35.9849 29.6232Z" fill="black"/>
<path d="M27.9191 4.46484H17.7216V22.5898H27.9191V4.46484Z" fill="#7673C0"/>
<path d="M18.3691 13.5307C18.3672 11.7849 18.767 10.0616 19.5382 8.49118C20.3094 6.9208 21.4318 5.54455 22.8204 4.46666C21.1011 3.13033 19.0363 2.29935 16.8621 2.06868C14.6879 1.83802 12.4919 2.21698 10.5252 3.16225C8.55842 4.10752 6.90024 5.58097 5.74015 7.4142C4.58005 9.24742 3.96484 11.3665 3.96484 13.5291C3.96484 15.6918 4.58005 17.8108 5.74015 19.644C6.90024 21.4773 8.55842 22.9507 10.5252 23.896C12.4919 24.8413 14.6879 25.2202 16.8621 24.9895C19.0363 24.7589 21.1011 23.9279 22.8204 22.5916C21.4322 21.514 20.3101 20.1383 19.5389 18.5685C18.7677 16.9987 18.3677 15.276 18.3691 13.5307V13.5307Z" fill="#EB001B"/>
<path d="M40.5639 20.6699V20.3113H40.716V20.2345H40.3308V20.3113H40.483V20.6827L40.5639 20.6699ZM41.3117 20.6699V20.2217H41.1952L41.0592 20.5419L40.9232 20.2217H40.8035V20.6699H40.8876V20.3337L41.0139 20.6251H41.1013L41.2275 20.3337V20.6731L41.3117 20.6699Z" fill="#00A1DF"/>
<path d="M41.6744 13.5291C41.6738 15.6914 41.0583 17.8099 39.8982 19.6426C38.7381 21.4753 37.0801 22.9484 35.1136 23.8934C33.1472 24.8384 30.9517 25.2173 28.7778 24.9868C26.604 24.7564 24.5396 23.9258 22.8204 22.59C24.208 21.5115 25.3298 20.1354 26.1012 18.5655C26.8725 16.9956 27.2734 15.273 27.2734 13.5275C27.2734 11.7821 26.8725 10.0594 26.1012 8.48956C25.3298 6.91969 24.208 5.54358 22.8204 4.46506C24.5395 3.12832 26.6043 2.29693 28.7786 2.06593C30.953 1.83494 33.1492 2.21366 35.1162 3.15879C37.0832 4.10393 38.7416 5.57735 39.9019 7.41064C41.0622 9.24392 41.6775 11.3631 41.6776 13.5259L41.6744 13.5291Z" fill="#00A1DF"/>
</svg>
