<svg width="47" height="32" viewBox="0 0 47 32" fill="none" xmlns="http://www.w3.org/2000/svg">
<rect width="47" height="32" rx="2" fill="white"/>
<path d="M11.6612 30.2257V28.3349C11.6723 28.1759 11.6491 28.0164 11.593 27.8669C11.5369 27.7175 11.4493 27.5816 11.3359 27.4683C11.2226 27.355 11.0861 27.2669 10.9356 27.2098C10.7851 27.1528 10.624 27.1281 10.4631 27.1374C10.2525 27.1238 10.0421 27.1663 9.85376 27.2605C9.66544 27.3547 9.50615 27.4972 9.39252 27.6731C9.28894 27.5025 9.14073 27.3627 8.96353 27.2684C8.78632 27.1741 8.58667 27.1289 8.38563 27.1374C8.21039 27.1286 8.03587 27.1653 7.87938 27.2438C7.72288 27.3223 7.58985 27.4399 7.49345 27.5849V27.213H6.83069V30.2257H7.49982V28.5681C7.48559 28.4651 7.49455 28.3602 7.52605 28.261C7.55755 28.1618 7.61082 28.0707 7.68206 27.9943C7.75329 27.9178 7.84073 27.8578 7.93812 27.8187C8.03551 27.7795 8.14045 27.7621 8.24543 27.7677C8.68515 27.7677 8.90819 28.0513 8.90819 28.5618V30.2383H9.57733V28.5681C9.56368 28.4652 9.57304 28.3606 9.60476 28.2616C9.63648 28.1627 9.68977 28.0718 9.76089 27.9955C9.832 27.9191 9.9192 27.8592 10.0163 27.8198C10.1134 27.7804 10.2181 27.7626 10.3229 27.7677C10.7754 27.7677 10.9921 28.0513 10.9921 28.5618V30.2383L11.6612 30.2257ZM21.5612 27.213H20.4715V26.2992H19.8023V27.213H19.1969V27.8118H19.8151V29.1984C19.8151 29.898 20.0891 30.314 20.873 30.314C21.1658 30.3149 21.453 30.2341 21.7014 30.0808L21.5102 29.5198C21.3325 29.6247 21.1308 29.6832 20.9239 29.69C20.6053 29.69 20.4842 29.4883 20.4842 29.1858V27.8118H21.5676L21.5612 27.213ZM27.2138 27.1374C27.0522 27.1327 26.8923 27.1712 26.751 27.2489C26.6097 27.3265 26.4922 27.4404 26.4109 27.5786V27.213H25.7545V30.2257H26.4172V28.5366C26.4172 28.0387 26.6339 27.7614 27.0545 27.7614C27.1963 27.7595 27.337 27.7852 27.4687 27.837L27.6726 27.2067C27.5213 27.1532 27.3618 27.1255 27.2011 27.1248L27.2138 27.1374ZM18.668 27.4525C18.2929 27.2319 17.8615 27.1226 17.4253 27.1374C16.6542 27.1374 16.1508 27.503 16.1508 28.1017C16.1508 28.5933 16.5204 28.8959 17.2023 28.9904L17.5209 29.0345C17.8842 29.0849 18.0562 29.1795 18.0562 29.3497C18.0562 29.5829 17.8141 29.7152 17.3616 29.7152C16.9977 29.7256 16.6408 29.6146 16.3483 29.4001L16.0297 29.9106C16.4158 30.1772 16.8782 30.3142 17.3489 30.3014C18.2283 30.3014 18.7381 29.8917 18.7381 29.3181C18.7381 28.7446 18.3366 28.5114 17.6739 28.4169L17.3552 28.3727C17.0685 28.3349 16.839 28.2782 16.839 28.0765C16.839 27.8748 17.0557 27.7236 17.419 27.7236C17.7547 27.7274 18.0838 27.8164 18.3749 27.982L18.668 27.4525ZM36.4192 27.1374C36.2576 27.1327 36.0977 27.1712 35.9564 27.2489C35.8151 27.3265 35.6976 27.4404 35.6162 27.5786V27.213H34.9598V30.2257H35.6226V28.5366C35.6226 28.0387 35.8393 27.7614 36.2599 27.7614C36.4016 27.7595 36.5424 27.7852 36.6741 27.837L36.878 27.2067C36.7267 27.1532 36.5672 27.1255 36.4065 27.1248L36.4192 27.1374ZM27.8798 28.7131C27.8719 28.9248 27.9088 29.1358 27.9881 29.3326C28.0674 29.5294 28.1874 29.7077 28.3403 29.856C28.4933 30.0043 28.6759 30.1194 28.8764 30.1939C29.0769 30.2684 29.2909 30.3007 29.5048 30.2888C29.9027 30.3088 30.2938 30.1806 30.6009 29.9295L30.2823 29.4001C30.0532 29.5729 29.7738 29.6679 29.4857 29.6711C29.2407 29.6515 29.0122 29.5414 28.8455 29.3627C28.6789 29.184 28.5864 28.9499 28.5864 28.7068C28.5864 28.4637 28.6789 28.2295 28.8455 28.0508C29.0122 27.8722 29.2407 27.7621 29.4857 27.7425C29.7738 27.7456 30.0532 27.8407 30.2823 28.0135L30.6009 27.4841C30.2938 27.233 29.9027 27.1048 29.5048 27.1248C29.2909 27.1128 29.0769 27.1451 28.8764 27.2196C28.6759 27.2942 28.4933 27.4093 28.3403 27.5576C28.1874 27.7059 28.0674 27.8842 27.9881 28.081C27.9088 28.2778 27.8719 28.4888 27.8798 28.7005V28.7131ZM34.0868 28.7131V27.213H33.424V27.5786C33.3115 27.4354 33.1661 27.3207 32.9999 27.244C32.8337 27.1672 32.6514 27.1307 32.4681 27.1374C32.0456 27.1374 31.6403 27.3034 31.3416 27.5989C31.0428 27.8944 30.8749 28.2952 30.8749 28.7131C30.8749 29.131 31.0428 29.5318 31.3416 29.8272C31.6403 30.1227 32.0456 30.2888 32.4681 30.2888C32.6514 30.2954 32.8337 30.2589 32.9999 30.1822C33.1661 30.1055 33.3115 29.9908 33.424 29.8476V30.2131H34.0868V28.7131ZM31.6205 28.7131C31.6311 28.5357 31.6939 28.3653 31.8011 28.2228C31.9084 28.0803 32.0554 27.972 32.2242 27.9111C32.3929 27.8502 32.576 27.8395 32.7508 27.8802C32.9257 27.9209 33.0846 28.0113 33.2082 28.1402C33.3317 28.2691 33.4145 28.431 33.4462 28.6058C33.4779 28.7807 33.4572 28.9609 33.3867 29.1243C33.3162 29.2877 33.1989 29.4271 33.0493 29.5253C32.8996 29.6236 32.7242 29.6765 32.5446 29.6774C32.4184 29.679 32.2933 29.6547 32.1771 29.6061C32.0609 29.5576 31.9561 29.4857 31.8693 29.3952C31.7825 29.3046 31.7156 29.1972 31.6728 29.0799C31.63 28.9625 31.6122 28.8376 31.6205 28.7131V28.7131ZM23.6228 27.1374C23.2003 27.1433 22.7974 27.3149 22.5028 27.6145C22.2082 27.9141 22.046 28.3172 22.0519 28.7351C22.0578 29.153 22.2314 29.5515 22.5343 29.8428C22.8373 30.1342 23.2449 30.2946 23.6674 30.2888C24.1258 30.312 24.5767 30.166 24.9324 29.8791L24.6137 29.3938C24.3621 29.5933 24.0504 29.7042 23.7279 29.7089C23.5089 29.7275 23.2911 29.6609 23.1209 29.5232C22.9507 29.3855 22.8416 29.1876 22.8166 28.9715H25.079C25.079 28.8896 25.079 28.8076 25.079 28.7194C25.079 27.774 24.4863 27.1437 23.6323 27.1437L23.6228 27.1374ZM23.6228 27.7236C23.722 27.7215 23.8206 27.7387 23.913 27.7743C24.0054 27.81 24.0899 27.8632 24.1615 27.9311C24.2331 27.999 24.2905 28.0802 24.3304 28.17C24.3702 28.2599 24.3918 28.3566 24.3939 28.4547H22.8007C22.8122 28.2524 22.9034 28.0626 23.0547 27.9259C23.2059 27.7893 23.4053 27.7166 23.61 27.7236H23.6228ZM40.2269 28.7194V26.0029H39.5896V27.5786C39.4771 27.4354 39.3317 27.3207 39.1655 27.244C38.9993 27.1672 38.817 27.1307 38.6337 27.1374C38.2112 27.1374 37.8059 27.3034 37.5072 27.5989C37.2084 27.8944 37.0405 28.2952 37.0405 28.7131C37.0405 29.131 37.2084 29.5318 37.5072 29.8272C37.8059 30.1227 38.2112 30.2888 38.6337 30.2888C38.817 30.2954 38.9993 30.2589 39.1655 30.1822C39.3317 30.1055 39.4771 29.9908 39.5896 29.8476V30.2131H40.2269V28.7194ZM41.3326 29.7877C41.374 29.7872 41.4151 29.7947 41.4536 29.8097C41.4902 29.8245 41.5237 29.8459 41.5524 29.8728C41.5804 29.8999 41.6031 29.932 41.6193 29.9673C41.6355 30.0041 41.6438 30.0438 41.6438 30.0839C41.6438 30.124 41.6355 30.1637 41.6193 30.2005C41.6031 30.2358 41.5804 30.2679 41.5524 30.2951C41.5237 30.3219 41.4902 30.3433 41.4536 30.3581C41.4155 30.3747 41.3743 30.3833 41.3326 30.3833C41.2722 30.3828 41.2131 30.3654 41.1624 30.3331C41.1116 30.3007 41.0712 30.2547 41.0458 30.2005C41.0298 30.1637 41.0216 30.124 41.0216 30.0839C41.0216 30.0438 41.0298 30.0042 41.0458 29.9673C41.062 29.932 41.0847 29.8999 41.1127 29.8728C41.1414 29.8459 41.1749 29.8245 41.2115 29.8097C41.253 29.7934 41.2975 29.7859 41.3421 29.7877H41.3326ZM41.3326 30.3203C41.3644 30.3205 41.3958 30.314 41.425 30.3014C41.4524 30.2893 41.4772 30.2721 41.4983 30.2509C41.5381 30.2079 41.5602 30.1517 41.5602 30.0934C41.5602 30.035 41.5381 29.9788 41.4983 29.9358C41.4773 29.9145 41.4524 29.8974 41.425 29.8854C41.3958 29.8728 41.3644 29.8664 41.3326 29.8665C41.3008 29.8666 41.2694 29.8731 41.2402 29.8854C41.2115 29.897 41.1855 29.9141 41.1637 29.9358C41.1238 29.9788 41.1017 30.035 41.1017 30.0934C41.1017 30.1517 41.1238 30.2079 41.1637 30.2509C41.1856 30.2725 41.2116 30.2897 41.2402 30.3014C41.2723 30.3151 41.3071 30.3215 41.3421 30.3203H41.3326ZM41.3517 29.9453C41.3814 29.9438 41.4107 29.9527 41.4345 29.9705C41.4443 29.9784 41.452 29.9886 41.457 30.0001C41.4619 30.0116 41.4641 30.0242 41.4632 30.0366C41.4637 30.0471 41.4619 30.0576 41.4581 30.0673C41.4542 30.0771 41.4484 30.086 41.4409 30.0934C41.4224 30.11 41.3989 30.1199 41.374 30.1217L41.4664 30.2257H41.3931L41.3071 30.1217H41.2784V30.2257H41.2179V29.9484L41.3517 29.9453ZM41.2816 29.9988V30.0745H41.3517C41.3642 30.0781 41.3774 30.0781 41.3899 30.0745C41.3922 30.0701 41.3933 30.0652 41.3933 30.0603C41.3933 30.0554 41.3922 30.0505 41.3899 30.0461C41.3922 30.0417 41.3933 30.0368 41.3933 30.0319C41.3933 30.027 41.3922 30.0221 41.3899 30.0177C41.3774 30.0141 41.3642 30.0141 41.3517 30.0177L41.2816 29.9988ZM37.7766 28.7194C37.7872 28.542 37.8499 28.3716 37.9572 28.2291C38.0644 28.0866 38.2115 27.9783 38.3802 27.9174C38.549 27.8565 38.732 27.8458 38.9069 27.8865C39.0817 27.9272 39.2407 28.0176 39.3642 28.1465C39.4878 28.2754 39.5705 28.4373 39.6022 28.6121C39.634 28.787 39.6133 28.9672 39.5427 29.1306C39.4722 29.294 39.3549 29.4334 39.2053 29.5316C39.0557 29.6299 38.8802 29.6828 38.7006 29.6837C38.5745 29.6853 38.4493 29.661 38.3331 29.6124C38.2169 29.5639 38.1121 29.492 38.0253 29.4015C37.9385 29.3109 37.8716 29.2035 37.8288 29.0862C37.786 28.9688 37.7682 28.8439 37.7766 28.7194V28.7194ZM15.3988 28.7194V27.213H14.736V27.5786C14.6235 27.4354 14.4781 27.3207 14.3119 27.244C14.1457 27.1672 13.9634 27.1307 13.7801 27.1374C13.3576 27.1374 12.9524 27.3034 12.6536 27.5989C12.3548 27.8944 12.187 28.2952 12.187 28.7131C12.187 29.131 12.3548 29.5318 12.6536 29.8272C12.9524 30.1227 13.3576 30.2888 13.7801 30.2888C13.9634 30.2954 14.1457 30.2589 14.3119 30.1822C14.4781 30.1055 14.6235 29.9908 14.736 29.8476V30.2131H15.3988V28.7194ZM12.9326 28.7194C12.9431 28.542 13.0059 28.3716 13.1132 28.2291C13.2204 28.0866 13.3675 27.9783 13.5362 27.9174C13.7049 27.8565 13.888 27.8458 14.0628 27.8865C14.2377 27.9272 14.3967 28.0176 14.5202 28.1465C14.6438 28.2754 14.7265 28.4373 14.7582 28.6121C14.7899 28.787 14.7692 28.9672 14.6987 29.1306C14.6282 29.294 14.5109 29.4334 14.3613 29.5316C14.2116 29.6299 14.0362 29.6828 13.8566 29.6837C13.7299 29.6862 13.6041 29.6625 13.4871 29.6144C13.3701 29.5662 13.2645 29.4945 13.1771 29.4038C13.0896 29.3132 13.0221 29.2055 12.9789 29.0877C12.9357 28.9698 12.9178 28.8444 12.9262 28.7194H12.9326Z" fill="black"/>
<path d="M28.4852 4.25586H18.4482V22.0956H28.4852V4.25586Z" fill="#FF5F00"/>
<path d="M19.0854 13.1775C19.0836 11.4591 19.4771 9.7629 20.2362 8.21722C20.9952 6.67155 22.1 5.31695 23.4667 4.25602C21.7744 2.94072 19.7422 2.12281 17.6022 1.89577C15.4622 1.66874 13.3007 2.04174 11.3649 2.97214C9.42913 3.90254 7.79704 5.3528 6.6552 7.15718C5.51336 8.96156 4.90784 11.0473 4.90784 13.1759C4.90784 15.3045 5.51336 17.3902 6.6552 19.1946C7.79704 20.999 9.42913 22.4493 11.3649 23.3797C13.3007 24.3101 15.4622 24.683 17.6022 24.456C19.7422 24.229 21.7744 23.4111 23.4667 22.0958C22.1004 21.0352 20.9959 19.6811 20.2369 18.136C19.4778 16.5909 19.0841 14.8953 19.0854 13.1775V13.1775Z" fill="#EB001B"/>
<path d="M42.0272 13.1778C42.0272 15.3066 41.4215 17.3924 40.2795 19.1969C39.1374 21.0013 37.5051 22.4516 35.569 23.3818C33.633 24.3121 31.4713 24.6848 29.3312 24.4575C27.1911 24.2301 25.1588 23.4118 23.4667 22.0961C24.8324 21.0346 25.9366 19.6801 26.6958 18.1349C27.4551 16.5897 27.8496 14.8942 27.8496 13.1762C27.8496 11.4583 27.4551 9.76272 26.6958 8.21754C25.9366 6.67236 24.8324 5.3179 23.4667 4.25635C25.1588 2.94064 27.1911 2.12234 29.3312 1.89497C31.4713 1.66761 33.633 2.04037 35.569 2.97064C37.5051 3.90091 39.1374 5.35115 40.2795 7.15559C41.4215 8.96003 42.0272 11.0459 42.0272 13.1747V13.1778Z" fill="#F79E1B"/>
<path d="M40.9311 20.2058V19.8403H41.0809V19.7646H40.7017V19.8403H40.8642V20.2058H40.9311ZM41.6672 20.2058V19.7646H41.5525L41.4187 20.0798L41.2848 19.7646H41.1829V20.2058H41.2657V19.8749L41.39 20.1617H41.476L41.6003 19.8749V20.209L41.6672 20.2058Z" fill="#F79E1B"/>
</svg>
