<svg width="47" height="32" viewBox="0 0 47 32" fill="none" xmlns="http://www.w3.org/2000/svg">
<rect width="47" height="32" rx="2" fill="white"/>
<path d="M29.5329 3.08858C28.6391 2.04299 27.0235 1.59473 24.9568 1.59473H18.9584C18.5355 1.59473 18.1762 1.91037 18.11 2.33836L15.6124 18.597C15.5627 18.9176 15.8046 19.208 16.1212 19.208H19.8244L20.7544 13.1532L20.7256 13.3428C20.7918 12.9148 21.1484 12.5991 21.5708 12.5991H23.3305C26.7875 12.5991 29.4944 11.1579 30.2852 6.9887C30.3087 6.8654 30.3289 6.74539 30.3466 6.62811C30.2467 6.57386 30.2467 6.57386 30.3466 6.62811C30.582 5.08713 30.3449 4.03826 29.5329 3.08858Z" fill="#003087"/>
<path d="M29.5329 3.08858C28.6391 2.04299 27.0235 1.59473 24.9568 1.59473H18.9584C18.5355 1.59473 18.1762 1.91037 18.11 2.33836L15.6124 18.597C15.5627 18.9176 15.8046 19.208 16.1212 19.208H19.8244L20.7544 13.1532L20.7256 13.3428C20.7918 12.9148 21.1484 12.5991 21.5708 12.5991H23.3305C26.7875 12.5991 29.4944 11.1579 30.2852 6.9887C30.3087 6.8654 30.3289 6.74539 30.3466 6.62811C30.2467 6.57386 30.2467 6.57386 30.3466 6.62811C30.582 5.08713 30.3449 4.03826 29.5329 3.08858Z" fill="#003087"/>
<path d="M21.754 6.64839C21.7935 6.39083 21.9548 6.17985 22.1715 6.07299C22.2703 6.02476 22.3803 5.99791 22.4956 5.99791H27.1982C27.7551 5.99791 28.2746 6.03518 28.7492 6.11354C28.8854 6.13599 29.0173 6.16177 29.1454 6.19136C29.2735 6.22038 29.3979 6.25328 29.5186 6.28945C29.5789 6.30751 29.6382 6.32619 29.6964 6.34589C29.9297 6.4259 30.147 6.51906 30.3467 6.62811C30.5821 5.08659 30.345 4.03826 29.533 3.08858C28.6387 2.04299 27.0237 1.59473 24.9569 1.59473H18.958C18.5356 1.59473 18.1763 1.91037 18.1101 2.33836L15.6125 18.5964C15.5628 18.9176 15.8047 19.2075 16.1208 19.2075H19.8245L20.7545 13.1526L21.754 6.64839Z" fill="#002F86"/>
<path d="M30.3466 6.62793C30.3285 6.74575 30.3087 6.86521 30.2852 6.98851C29.4945 11.1572 26.7876 12.5989 23.3306 12.5989H21.5703C21.148 12.5989 20.7913 12.9146 20.7257 13.3426L19.8244 19.2073L19.5687 20.871C19.5254 21.1516 19.7369 21.4059 20.0134 21.4059H23.1352C23.5046 21.4059 23.8191 21.1297 23.8768 20.7554L23.9072 20.5921L24.4956 16.7648L24.5335 16.5533C24.5912 16.179 24.9056 15.9028 25.2751 15.9028H25.7423C28.7663 15.9028 31.1342 14.6419 31.8261 10.9949C32.115 9.47096 31.9655 8.1985 31.2014 7.30471C30.9697 7.034 30.682 6.81041 30.3467 6.62793" fill="#009CDE"/>
<path d="M29.5187 6.28861C29.3981 6.25244 29.2737 6.21956 29.1455 6.19051C29.0174 6.16145 28.885 6.13571 28.7494 6.11325C28.2742 6.03433 27.7552 5.99707 27.1978 5.99707H22.4957C22.3799 5.99707 22.2699 6.02394 22.1716 6.07269C21.9543 6.17955 21.7936 6.38999 21.7541 6.6481L20.7547 13.1523L20.7258 13.3419C20.7915 12.9139 21.1481 12.5983 21.5705 12.5983H23.3308C26.7878 12.5983 29.4947 11.157 30.2854 6.98786C30.3089 6.86456 30.3286 6.74509 30.3468 6.62727C30.1466 6.51877 29.9298 6.42506 29.6965 6.3456C29.6383 6.32587 29.579 6.30667 29.5187 6.28861Z" fill="#012069"/>
<path d="M9.97633 26.5665L9.57922 28.9114H8L9.16364 22L11.5786 22.0047C12.3267 22.0047 12.9147 22.2184 13.3426 22.6456C13.7735 23.0728 13.9629 23.6266 13.9105 24.307C13.8736 24.7722 13.7289 25.1756 13.4765 25.5174C13.2241 25.8592 12.89 26.1203 12.4745 26.3006C12.062 26.481 11.5987 26.5712 11.0846 26.5712L9.97633 26.5665ZM10.1934 25.2801L11.1446 25.2896C11.5448 25.2801 11.8511 25.1472 12.0635 24.8908C12.2759 24.6313 12.3606 24.3133 12.3175 23.9367C12.2928 23.7437 12.2205 23.5918 12.1004 23.481C11.9835 23.3671 11.828 23.3038 11.6341 23.2911L10.5304 23.2864L10.1934 25.2801Z" fill="#002F86"/>
<path d="M16.7134 28.9114C16.6703 28.788 16.6488 28.6329 16.6488 28.4462C16.3071 28.8323 15.8992 29.019 15.4251 29.0063C14.9911 29 14.6309 28.8513 14.3446 28.5601C14.0583 28.269 13.9244 27.9161 13.9429 27.5016C13.9582 26.9446 14.1845 26.5174 14.6216 26.2199C15.0588 25.9193 15.656 25.769 16.4133 25.769L16.9212 25.7785L16.9766 25.4889L16.9951 25.2373C16.9828 24.9494 16.8427 24.8006 16.5749 24.7911C16.2424 24.7848 16.0377 24.9731 15.9608 25.356L14.4369 25.3608C14.4523 25.0158 14.5616 24.7168 14.7648 24.4636C14.968 24.2073 15.2435 24.0111 15.5913 23.875C15.9423 23.7358 16.3148 23.6709 16.7088 23.6804C17.0874 23.6899 17.4184 23.7722 17.7016 23.9272C17.9879 24.0791 18.2018 24.2927 18.3434 24.568C18.485 24.8402 18.5389 25.1551 18.5051 25.5127L18.131 27.9288L18.1079 28.2231C18.0956 28.4573 18.1249 28.6566 18.1957 28.8212L18.1911 28.9114H16.7134ZM15.8453 27.8766C16.1562 27.8892 16.4287 27.7484 16.6626 27.4541L16.815 26.6282L16.4225 26.6234C16.1793 26.6297 15.97 26.7041 15.7945 26.8465C15.619 26.9858 15.5159 27.1772 15.4851 27.4209C15.4697 27.5506 15.4928 27.6582 15.5544 27.7437C15.619 27.8259 15.716 27.8703 15.8453 27.8766Z" fill="#002F86"/>
<path d="M21.0309 26.6519L22.3238 23.7753H24L21.0724 29.6804C20.8539 30.1456 20.6014 30.481 20.3152 30.6867C20.0319 30.8956 19.6933 31 19.2993 31C19.1238 31 18.9006 30.9652 18.6297 30.8956L18.7452 29.7516H18.9206C19.1084 29.7516 19.2731 29.7199 19.4147 29.6566C19.5563 29.5965 19.6748 29.4778 19.7703 29.3006L19.9873 28.8734L19.1885 23.7753H20.7584L21.0309 26.6519Z" fill="#002F86"/>
<path d="M26.0284 26.6873L25.6209 28.9095H24L25.1943 22.3599L27.673 22.3644C28.4408 22.3644 29.0442 22.5668 29.4834 22.9716C29.9258 23.3765 30.1201 23.9013 30.0664 24.5461C30.0284 24.9869 29.8799 25.3693 29.6209 25.6931C29.3618 26.017 29.019 26.2644 28.5924 26.4354C28.169 26.6063 27.6935 26.6918 27.1659 26.6918L26.0284 26.6873ZM26.2512 25.4682L27.2275 25.4772C27.6382 25.4682 27.9526 25.3423 28.1706 25.0994C28.3886 24.8535 28.4755 24.5521 28.4313 24.1952C28.406 24.0123 28.3318 23.8683 28.2085 23.7634C28.0885 23.6554 27.9289 23.5954 27.7299 23.5834L26.5972 23.5789L26.2512 25.4682Z" fill="#009CDE"/>
<path d="M32.9431 28.9095C32.8989 28.7925 32.8768 28.6456 32.8768 28.4686C32.5261 28.8345 32.1074 29.0114 31.6209 28.9994C31.1754 28.9934 30.8057 28.8525 30.5118 28.5766C30.218 28.3007 30.0806 27.9663 30.0995 27.5735C30.1153 27.0456 30.3476 26.6408 30.7962 26.3589C31.2449 26.074 31.8578 25.9316 32.6351 25.9316L33.1564 25.9406L33.2133 25.6662L33.2322 25.4277C33.2196 25.1548 33.0758 25.0139 32.8009 25.0049C32.4597 24.9989 32.2496 25.1773 32.1706 25.5402L30.6066 25.5447C30.6224 25.2178 30.7346 24.9344 30.9431 24.6945C31.1517 24.4516 31.4344 24.2657 31.7915 24.1367C32.1517 24.0048 32.534 23.9433 32.9384 23.9523C33.327 23.9613 33.6667 24.0393 33.9573 24.1862C34.2512 24.3301 34.4708 24.5326 34.6161 24.7935C34.7615 25.0514 34.8167 25.3498 34.782 25.6886L34.3981 27.9783L34.3744 28.2572C34.3618 28.4791 34.3918 28.668 34.4645 28.824L34.4597 28.9095H32.9431ZM32.0521 27.9288C32.3712 27.9408 32.6509 27.8074 32.891 27.5285L33.0474 26.7458L32.6446 26.7413C32.3949 26.7473 32.1801 26.8177 32 26.9527C31.8199 27.0846 31.7141 27.2661 31.6825 27.497C31.6667 27.6199 31.6904 27.7219 31.7536 27.8029C31.8199 27.8808 31.9194 27.9228 32.0521 27.9288Z" fill="#009CDE"/>
<path d="M36.7393 28.9095H35.1754L36.436 22H38L36.7393 28.9095Z" fill="#009CDE"/>
</svg>
