<svg width="47" height="32" viewBox="0 0 47 32" fill="none" xmlns="http://www.w3.org/2000/svg">
<rect width="47" height="32" rx="2" fill="white"/>
<path d="M46 31H1V1H46V31Z" fill="white"/>
<path d="M2 26H45V30H2V26V26Z" fill="#F7B600"/>
<path d="M2 6H45V2H2V6V6Z" fill="#1A1F71"/>
<path d="M22.0772 9.57504L19.7518 20.2706H16.9393L19.2647 9.57504H22.0772ZM33.9084 16.4812L35.3893 12.4647L36.24 16.4812H33.9084V16.4812ZM37.0477 20.2706H39.648L37.3762 9.57504H34.9771C34.4359 9.57504 33.9813 9.88399 33.7795 10.3591L29.5595 20.2706H32.5128L33.0986 18.6729H36.7069L37.0477 20.2706ZM29.7061 16.7786C29.7179 13.9563 25.7399 13.7997 25.7659 12.5386C25.7754 12.1553 26.1465 11.7471 26.959 11.6428C27.3614 11.5916 28.4732 11.5507 29.7326 12.1216L30.2252 9.85228C29.5486 9.61155 28.6779 9.37979 27.5948 9.37979C24.8145 9.37979 22.8587 10.8327 22.8432 12.9149C22.8249 14.455 24.2401 15.3134 25.3043 15.8264C26.4005 16.3502 26.7681 16.6869 26.763 17.1551C26.7552 17.8727 25.8876 18.1904 25.081 18.2022C23.6665 18.2242 22.8465 17.8261 22.1925 17.5263L21.682 19.8709C22.3401 20.1676 23.5527 20.4254 24.8087 20.4385C27.7643 20.4385 29.6975 19.0022 29.7061 16.7786ZM18.0582 9.57504L13.5018 20.2706H10.5288L8.28637 11.7346C8.15059 11.2101 8.03237 11.017 7.61858 10.7953C6.94236 10.4339 5.82568 10.0959 4.84412 9.88552L4.91034 9.57504H9.69638C10.3055 9.57504 10.8539 9.97407 10.9933 10.665L12.1782 16.8546L15.1033 9.57504H18.0582Z" fill="#1A1F71"/>
<path d="M25.6765 23.2151H24.5338V24.2615H25.812V24.5762H24.1487V21.673H25.7465V21.9876H24.5338V22.9048H25.6765V23.2151Z" fill="#1A1F71"/>
<path d="M26.4022 21.5182H26.7873V24.5762H26.4022V21.5182Z" fill="#1A1F71"/>
<path d="M28.8883 23.3308C28.8928 23.0941 28.7877 22.7193 28.3543 22.7193C27.9603 22.7193 27.7939 23.0683 27.7632 23.3308H28.8883ZM27.759 23.6022C27.7676 24.1149 28.0961 24.3259 28.4854 24.3259C28.7614 24.3259 28.9321 24.2785 29.0723 24.2183L29.1423 24.4897C29.0065 24.5498 28.7703 24.623 28.433 24.623C27.781 24.623 27.3914 24.1967 27.3914 23.5679C27.3914 22.939 27.7676 22.448 28.385 22.448C29.081 22.448 29.2605 23.0425 29.2605 23.4257C29.2605 23.5031 29.2561 23.5591 29.2472 23.6022H27.759V23.6022Z" fill="#1A1F71"/>
<path d="M31.3565 24.5024C31.2559 24.5498 31.0325 24.623 30.7481 24.623C30.109 24.623 29.6932 24.1967 29.6932 23.5591C29.6932 22.9174 30.1394 22.448 30.8312 22.448C31.0587 22.448 31.2601 22.5037 31.3652 22.5599L31.2779 22.8485C31.1856 22.8011 31.0412 22.7492 30.8312 22.7492C30.3452 22.7492 30.0827 23.1067 30.0827 23.5377C30.0827 24.02 30.3979 24.3172 30.8181 24.3172C31.037 24.3172 31.1814 24.2656 31.2907 24.2181L31.3565 24.5024Z" fill="#1A1F71"/>
<path d="M32.437 21.9914V22.491H32.9883V22.7794H32.437V23.9037C32.437 24.1624 32.5114 24.3086 32.7258 24.3086C32.8307 24.3086 32.8923 24.3001 32.9492 24.2826L32.9667 24.5714C32.8923 24.5972 32.7741 24.623 32.6252 24.623C32.4456 24.623 32.3012 24.5627 32.2094 24.4639C32.1043 24.3473 32.0605 24.1624 32.0605 23.9168V22.7794H31.7321V22.491H32.0605V22.1034L32.437 21.9914Z" fill="#1A1F71"/>
<path d="M33.5263 23.1419C33.5263 22.8963 33.5217 22.6853 33.5088 22.4914H33.8459L33.8635 22.9048H33.8763C33.9728 22.625 34.209 22.4483 34.4672 22.4483C34.5068 22.4483 34.5375 22.4527 34.5726 22.4568V22.8145C34.533 22.8058 34.4939 22.8058 34.441 22.8058C34.1699 22.8058 33.977 23.0039 33.9246 23.2883C33.9159 23.3399 33.9115 23.4044 33.9115 23.465V24.5762H33.5263V23.1419Z" fill="#1A1F71"/>
<path d="M35.2635 23.5377C35.2635 23.9942 35.5262 24.3388 35.9026 24.3388C36.2704 24.3388 36.546 23.9984 36.546 23.5289C36.546 23.1758 36.3666 22.732 35.9113 22.732C35.4606 22.732 35.2635 23.1457 35.2635 23.5377ZM36.9402 23.516C36.9402 24.287 36.3929 24.623 35.8851 24.623C35.316 24.623 34.8698 24.2094 34.8698 23.5506C34.8698 22.857 35.338 22.448 35.9202 22.448C36.5287 22.448 36.9402 22.8828 36.9402 23.516" fill="#1A1F71"/>
<path d="M37.5306 23.0557C37.5306 22.8362 37.526 22.6639 37.5131 22.4916H37.8544L37.8764 22.8362H37.8851C37.9902 22.6422 38.2353 22.4485 38.5855 22.4485C38.8786 22.4485 39.334 22.6208 39.334 23.3356V24.5762H38.9489V23.3745C38.9489 23.0387 38.822 22.7586 38.4586 22.7586C38.2091 22.7586 38.012 22.9352 37.9422 23.1462C37.9244 23.1937 37.9157 23.2582 37.9157 23.3229V24.5762H37.5306V23.0557Z" fill="#1A1F71"/>
</svg>
